0
SECTION
2
HEADER
9
$INSUNITS
70
4
9
$ACADVER
1
AC1014
9
$HANDSEED
5
FFFF
0
ENDSEC
0
SECTION
2
TABLES
0
TABLE
2
VPORT
5
8
100
AcDbSymbolTable
0
ENDTAB
0
TABLE
2
LTYPE
5
5
100
AcDbSymbolTable
0
LTYPE
5
14
100
AcDbSymbolTableRecord
100
AcDbLinetypeTableRecord
2
BYBLOCK
70
0
0
LTYPE
5
15
100
AcDbSymbolTableRecord
100
AcDbLinetypeTableRecord
2
BYLAYER
70
0
0
LTYPE
5
16
100
AcDbSymbolTableRecord
100
AcDbLinetypeTableRecord
2
DASHED
70
0
3
Dashed __ __ __ __ __ __ __ __ __ __ __ __ __ _
72
65
73
2
40
0.75
49
0.5
74
0
49
-0.25
74
0
0
ENDTAB
0
TABLE
2
LAYER
5
2
100
AcDbSymbolTable
70
3
0
LAYER
5
50
100
AcDbSymbolTableRecord
100
AcDbLayerTableRecord
2
1
70
0
62
7
6
DASHED
0
LAYER
5
51
100
AcDbSymbolTableRecord
100
AcDbLayerTableRecord
2
0
70
0
62
7
6
CONTINUOUS
0
ENDTAB
0
TABLE
2
STYLE
5
3
100
AcDbSymbolTable
70
1
0
STYLE
5
11
100
AcDbSymbolTableRecord
100
AcDbTextStyleTableRecord
2
STANDARD
70
0
0
ENDTAB
0
TABLE
2
VIEW
5
6
100
AcDbSymbolTable
70
0
0
ENDTAB
0
TABLE
2
UCS
5
7
100
AcDbSymbolTable
70
0
0
ENDTAB
0
TABLE
2
APPID
5
9
100
AcDbSymbolTable
70
2
0
APPID
5
12
100
AcDbSymbolTableRecord
100
AcDbRegAppTableRecord
2
ACAD
70
0
0
ENDTAB
0
TABLE
2
DIMSTYLE
5
A
100
AcDbSymbolTable
70
1
0
ENDTAB
0
TABLE
2
BLOCK_RECORD
5
1
100
AcDbSymbolTable
70
1
0
BLOCK_RECORD
5
1F
100
AcDbSymbolTableRecord
100
AcDbBlockTableRecord
2
*MODEL_SPACE
0
BLOCK_RECORD
5
1B
100
AcDbSymbolTableRecord
100
AcDbBlockTableRecord
2
*PAPER_SPACE
0
ENDTAB
0
ENDSEC
0
SECTION
2
BLOCKS
0
BLOCK
5
20
100
AcDbEntity
100
AcDbBlockBegin
2
*MODEL_SPACE
0
ENDBLK
5
21
100
AcDbEntity
100
AcDbBlockEnd
0
BLOCK
5
1C
100
AcDbEntity
100
AcDbBlockBegin
2
*PAPER_SPACE
0
ENDBLK
5
1D
100
AcDbEntity
100
AcDbBlockEnd
0
ENDSEC
0
SECTION
2
ENTITIES
0
LWPOLYLINE
5
100
100
AcDbEntity
8
0
100
AcDbPolyline
90
4
70
1
43
0.0
10
-55.000000819563866
20
22.000000327825546
10
55.131507062150718
20
22.000000327825546
10
55.131507062150725
20
-54.59242285864272
10
-55.000000819563866
20
-54.59242285864272
0
CIRCLE
5
101
100
AcDbEntity
8
0
100
AcDbCircle
10
49.484505528996927
20
-51.993009454492565
30
0
40
1.8038684710253481
210
0
220
0
230
1
0
CIRCLE
5
102
100
AcDbEntity
8
0
100
AcDbCircle
10
49.484505528996927
20
17.817100408649473
30
0
40
1.7196255374927878
210
0
220
0
230
1
0
CIRCLE
5
103
100
AcDbEntity
8
0
100
AcDbCircle
10
-48.438737262960679
20
17.817100408649473
30
0
40
1.7040821250484117
210
0
220
0
230
1
0
CIRCLE
5
104
100
AcDbEntity
8
0
100
AcDbCircle
10
-48.438737262960679
20
-51.993009454492565
30
0
40
1.7940616138867287
210
0
220
0
230
1
0
LWPOLYLINE
5
105
100
AcDbEntity
8
0
100
AcDbPolyline
90
4
70
1
43
0.0
10
13.775962299326752
20
0.61048443646282813
10
25.600775419367807
20
0.61048443646282813
10
25.600775419367807
20
-11.495871853103017
10
13.775962299326752
20
-11.495871853103017
0
LWPOLYLINE
5
106
100
AcDbEntity
8
0
100
AcDbPolyline
90
4
70
1
43
0.0
10
13.353647545039573
20
-15.437476226450038
10
25.741547004130211
20
-15.437476226450038
10
25.741547004130211
20
-27.403060931253485
10
13.353647545039573
20
-27.403060931253485
0
LWPOLYLINE
5
107
100
AcDbEntity
8
0
100
AcDbPolyline
90
4
70
1
43
0.0
10
13.494419129801978
20
-31.626208474125292
10
25.741547004130211
20
-31.626208474125292
10
25.741547004130211
20
-43.451021594166342
10
13.494419129801978
20
-43.451021594166342
0
LWPOLYLINE
5
108
100
AcDbEntity
8
0
100
AcDbPolyline
90
4
70
1
43
0.0
10
-52.668225708522989
20
-0.65645982639871647
10
-9.1698060169433848
20
-0.65645982639871647
10
-9.1698060169433848
20
-18.815994260747473
10
-52.668225708522989
20
-18.815994260747473
0
LWPOLYLINE
5
109
100
AcDbEntity
8
0
100
AcDbPolyline
90
4
70
1
43
0.0
10
-49.993565598037513
20
1.5958855297995811
10
-11.985237712191266
20
1.5958855297995811
10
-11.985237712191266
20
-0.65645982639871647
10
-49.993565598037513
20
-0.65645982639871647
0
LWPOLYLINE
5
110
100
AcDbEntity
8
0
100
AcDbPolyline
90
4
70
1
43
0.0
10
-50.134337182799904
20
-18.956765845509871
10
-11.985237712191266
20
-18.956765845509871
10
-11.985237712191266
20
-21.490654371232949
10
-50.134337182799904
20
-21.490654371232949
0
CIRCLE
5
111
100
AcDbEntity
8
0
100
AcDbCircle
10
38.974075971795202
20
4.8336319793346316
30
0
40
6.7408866925984414
210
0
220
0
230
1
0
CIRCLE
5
112
100
AcDbEntity
8
0
100
AcDbCircle
10
38.974075971795202
20
4.8336319793346316
30
0
40
3.0873618828709022
210
0
220
0
230
1
0
CIRCLE
5
113
100
AcDbEntity
8
0
100
AcDbCircle
10
38.995372796080545
20
-14.311303548350892
30
0
40
3.2833293556426266
210
0
220
0
230
1
0
CIRCLE
5
114
100
AcDbEntity
8
0
100
AcDbCircle
10
38.995372796080545
20
-14.311303548350892
30
0
40
7.055451605688166
210
0
220
0
230
1
0
CIRCLE
5
115
100
AcDbEntity
8
0
100
AcDbCircle
10
39.101494077502679
20
-33.951235722162053
30
0
40
3.0873618828708951
210
0
220
0
230
1
0
CIRCLE
5
116
100
AcDbEntity
8
0
100
AcDbCircle
10
39.101494077502679
20
-33.951235722162053
30
0
40
6.6401823728906493
210
0
220
0
230
1
0
LWPOLYLINE
5
117
100
AcDbEntity
8
0
100
AcDbPolyline
90
4
70
1
43
0.0
10
4.6280988768513032
20
-1.0682021915007311
10
9.8978956385162498
20
-1.0682021915007311
10
9.8978956385162498
20
-3.9665904104164529
10
4.6280988768513032
20
-3.9665904104164529
0
LWPOLYLINE
5
118
100
AcDbEntity
8
0
100
AcDbPolyline
90
4
70
1
43
0.0
10
4.6280988768513032
20
-6.9088936023460441
10
10.029640557557871
20
-6.9088936023460441
10
10.029640557557871
20
-9.5877069561923918
10
4.6280988768513032
20
-9.5877069561923918
0
LWPOLYLINE
5
119
100
AcDbEntity
8
0
100
AcDbPolyline
90
4
70
1
43
0.0
10
4.7159288228790519
20
-12.837414959219107
10
9.8978956385162498
20
-12.837414959219107
10
9.8978956385162498
20
-15.516228313065454
10
4.7159288228790519
20
-15.516228313065454
0
LWPOLYLINE
5
120
100
AcDbEntity
8
0
100
AcDbPolyline
90
4
70
1
43
0.0
10
4.584183903837431
20
-18.458531504995047
10
9.9418106115301228
20
-18.458531504995047
10
9.9418106115301228
20
-21.313004750896894
10
4.584183903837431
20
-21.313004750896894
0
LWPOLYLINE
5
121
100
AcDbEntity
8
0
100
AcDbPolyline
90
4
70
1
43
0.0
10
-42.670365826065463
20
-27.935491005191992
10
-34.90693547264663
20
-27.935491005191992
10
-34.90693547264663
20
-30.971191335695512
10
-42.670365826065463
20
-30.971191335695512
0
LWPOLYLINE
5
122
100
AcDbEntity
8
0
100
AcDbPolyline
90
4
70
1
43
0.0
10
-30.079674291354152
20
-28.33361563870065
10
-22.266478358746738
20
-28.33361563870065
10
-22.266478358746738
20
-31.020956914884088
10
-30.079674291354152
20
-31.020956914884088
0
LWPOLYLINE
5
123
100
AcDbEntity
8
0
100
AcDbPolyline
90
4
70
1
43
0.0
10
-17.638279494208589
20
-28.234084480323489
10
-9.7255524032240039
20
-28.234084480323489
10
-9.7255524032240039
20
-30.821894598129763
10
-17.638279494208589
20
-30.821894598129763
0
LWPOLYLINE
5
124
100
AcDbEntity
8
0
100
AcDbPolyline
90
4
70
1
43
0.0
10
-4.8982912219315322
20
-28.134553321946321
10
3.0144358690530515
20
-28.134553321946321
10
3.0144358690530515
20
-30.971191335695508
10
-4.8982912219315322
20
-30.971191335695508
0
CIRCLE
5
125
100
AcDbEntity
8
0
100
AcDbCircle
10
-39.870797224589815
20
-47.735569797223533
30
0
40
2.7925445325830274
210
0
220
0
230
1
0
CIRCLE
5
126
100
AcDbEntity
8
0
100
AcDbCircle
10
-33.916560634330502
20
-47.735569797223533
30
0
40
2.733849681798652
210
0
220
0
230
1
0
CIRCLE
5
127
100
AcDbEntity
8
0
100
AcDbCircle
10
-27.806996133020942
20
-47.735569797223533
30
0
40
2.8254693048681609
210
0
220
0
230
1
0
CIRCLE
5
128
100
AcDbEntity
8
0
100
AcDbCircle
10
-21.749207602061468
20
-47.735569797223533
30
0
40
2.7519305720859317
210
0
220
0
230
1
0
CIRCLE
5
129
100
AcDbEntity
8
0
100
AcDbCircle
10
-15.484315189701663
20
-47.735569797223533
30
0
40
2.6728639502732698
210
0
220
0
230
1
0
CIRCLE
5
130
100
AcDbEntity
8
0
100
AcDbCircle
10
-9.4265266587421834
20
-47.735569797223533
30
0
40
2.6304027455491052
210
0
220
0
230
1
0
CIRCLE
5
131
100
AcDbEntity
8
0
100
AcDbCircle
10
-3.5240660388329514
20
-47.735569797223533
30
0
40
2.7524175963481508
210
0
220
0
230
1
0
CIRCLE
5
132
100
AcDbEntity
8
0
100
AcDbCircle
10
2.5337224921265245
20
-47.735569797223533
30
0
40
2.6688491317091891
210
0
220
0
230
1
0
LWPOLYLINE
5
133
100
AcDbEntity
8
0
100
AcDbPolyline
90
4
70
1
43
0.0
10
-49.536616525725449
20
-32.806062186083082
10
-46.956986313428629
20
-32.806062186083082
10
-46.956986313428629
20
-38.326470840398272
10
-49.536616525725449
20
-38.326470840398272
0
LWPOLYLINE
5
134
100
AcDbEntity
8
0
100
AcDbPolyline
90
4
70
1
43
0.0
10
-49.639801734217315
20
-40.338582405989783
10
-46.85380110493675
20
-40.338582405989783
10
-46.85380110493675
20
-45.755805851813101
10
-49.639801734217315
20
-45.755805851813101
0
LWPOLYLINE
5
135
100
AcDbEntity
8
0
100
AcDbPolyline
90
4
70
1
43
0.0
10
-54.268368358449052
20
-7.0360465504554126
10
-48.371767909009151
20
-7.0360465504554126
10
-48.371767909009151
20
-12.932646999895315
10
-54.268368358449052
20
-12.932646999895315
0
LWPOLYLINE
5
136
100
AcDbEntity
8
0
100
AcDbPolyline
90
4
70
1
43
0.0
10
-42.281836297292529
20
19.063660356901512
10
-34.935252130777251
20
19.063660356901512
10
-34.935252130777251
20
6.1104724843614067
10
-42.281836297292529
20
6.1104724843614067
0
CIRCLE
5
137
100
AcDbEntity
8
0
100
AcDbCircle
10
19.597063772575961
20
-5.2833471439288111
30
0
40
3.6834178171730532
210
0
220
0
230
1
0
CIRCLE
5
138
100
AcDbEntity
8
0
100
AcDbCircle
10
19.568564233937252
20
-21.44185298738627
30
0
40
3.8787677124530906
210
0
220
0
230
1
0
CIRCLE
5
139
100
AcDbEntity
8
0
100
AcDbCircle
10
19.614181703909352
20
-37.542738924373907
30
0
40
3.8068197709939615
210
0
220
0
230
1
0
ENDSEC
0
SECTION
2
OBJECTS
0
DICTIONARY
5
C
100
AcDbDictionary
3
ACAD_GROUP
350
D
3
ACAD_MLINESTYLE
350
17
0
DICTIONARY
5
D
100
AcDbDictionary
0
DICTIONARY
5
1A
330
C
100
AcDbDictionary
0
DICTIONARY
5
17
100
AcDbDictionary
0
ENDSEC
0
EOF
